<svg id="visual" viewBox="0 0 2000 540" width="2000" height="540" xmlns="http://www.w3.org/2000/svg" xmlns:xlink="http://www.w3.org/1999/xlink" version="1.1"><rect x="0" y="0" width="2000" height="540" fill="#ffffff"></rect><path d="M0 244L25.7 252.3C51.3 260.7 102.7 277.3 154 267.5C205.3 257.7 256.7 221.3 308 205C359.3 188.7 410.7 192.3 461.8 207.5C513 222.7 564 249.3 615.2 265.8C666.3 282.3 717.7 288.7 769 276.8C820.3 265 871.7 235 923 228.5C974.3 222 1025.7 239 1077 244.2C1128.3 249.3 1179.7 242.7 1231 237.7C1282.3 232.7 1333.7 229.3 1384.8 229.3C1436 229.3 1487 232.7 1538.2 229.8C1589.3 227 1640.7 218 1692 215.2C1743.3 212.3 1794.7 215.7 1846 217.3C1897.3 219 1948.7 219 1974.3 219L2000 219L2000 541L1974.3 541C1948.7 541 1897.3 541 1846 541C1794.7 541 1743.3 541 1692 541C1640.7 541 1589.3 541 1538.2 541C1487 541 1436 541 1384.8 541C1333.7 541 1282.3 541 1231 541C1179.7 541 1128.3 541 1077 541C1025.7 541 974.3 541 923 541C871.7 541 820.3 541 769 541C717.7 541 666.3 541 615.2 541C564 541 513 541 461.8 541C410.7 541 359.3 541 308 541C256.7 541 205.3 541 154 541C102.7 541 51.3 541 25.7 541L0 541Z" fill="#ffffff"></path><path d="M0 317L25.7 318.5C51.3 320 102.7 323 154 311.3C205.3 299.7 256.7 273.3 308 266.2C359.3 259 410.7 271 461.8 279.5C513 288 564 293 615.2 289.5C666.3 286 717.7 274 769 280.2C820.3 286.3 871.7 310.7 923 308.3C974.3 306 1025.7 277 1077 269C1128.3 261 1179.7 274 1231 282.3C1282.3 290.7 1333.7 294.3 1384.8 302C1436 309.7 1487 321.3 1538.2 325.2C1589.3 329 1640.7 325 1692 315.2C1743.3 305.3 1794.7 289.7 1846 276.7C1897.3 263.7 1948.7 253.3 1974.3 248.2L2000 243L2000 541L1974.3 541C1948.7 541 1897.3 541 1846 541C1794.7 541 1743.3 541 1692 541C1640.7 541 1589.3 541 1538.2 541C1487 541 1436 541 1384.8 541C1333.7 541 1282.3 541 1231 541C1179.7 541 1128.3 541 1077 541C1025.7 541 974.3 541 923 541C871.7 541 820.3 541 769 541C717.7 541 666.3 541 615.2 541C564 541 513 541 461.8 541C410.7 541 359.3 541 308 541C256.7 541 205.3 541 154 541C102.7 541 51.3 541 25.7 541L0 541Z" fill="#cdd4ed"></path><path d="M0 363L25.7 365.5C51.3 368 102.7 373 154 376.7C205.3 380.3 256.7 382.7 308 374.7C359.3 366.7 410.7 348.3 461.8 344C513 339.7 564 349.3 615.2 350.2C666.3 351 717.7 343 769 334.7C820.3 326.3 871.7 317.7 923 327.7C974.3 337.7 1025.7 366.3 1077 366.3C1128.3 366.3 1179.7 337.7 1231 329.2C1282.3 320.7 1333.7 332.3 1384.8 334C1436 335.7 1487 327.3 1538.2 330C1589.3 332.7 1640.7 346.3 1692 353.2C1743.3 360 1794.7 360 1846 350.8C1897.3 341.7 1948.7 323.3 1974.3 314.2L2000 305L2000 541L1974.3 541C1948.7 541 1897.3 541 1846 541C1794.7 541 1743.3 541 1692 541C1640.7 541 1589.3 541 1538.2 541C1487 541 1436 541 1384.8 541C1333.7 541 1282.3 541 1231 541C1179.7 541 1128.3 541 1077 541C1025.7 541 974.3 541 923 541C871.7 541 820.3 541 769 541C717.7 541 666.3 541 615.2 541C564 541 513 541 461.8 541C410.7 541 359.3 541 308 541C256.7 541 205.3 541 154 541C102.7 541 51.3 541 25.7 541L0 541Z" fill="#9babdb"></path><path d="M0 424L25.7 428.2C51.3 432.3 102.7 440.7 154 436.3C205.3 432 256.7 415 308 404.3C359.3 393.7 410.7 389.3 461.8 397C513 404.7 564 424.3 615.2 424.2C666.3 424 717.7 404 769 403.3C820.3 402.7 871.7 421.3 923 428.8C974.3 436.3 1025.7 432.7 1077 429.3C1128.3 426 1179.7 423 1231 413.8C1282.3 404.7 1333.7 389.3 1384.8 385C1436 380.7 1487 387.3 1538.2 391.8C1589.3 396.3 1640.7 398.7 1692 401.5C1743.3 404.3 1794.7 407.7 1846 405C1897.3 402.3 1948.7 393.7 1974.3 389.3L2000 385L2000 541L1974.3 541C1948.7 541 1897.3 541 1846 541C1794.7 541 1743.3 541 1692 541C1640.7 541 1589.3 541 1538.2 541C1487 541 1436 541 1384.8 541C1333.7 541 1282.3 541 1231 541C1179.7 541 1128.3 541 1077 541C1025.7 541 974.3 541 923 541C871.7 541 820.3 541 769 541C717.7 541 666.3 541 615.2 541C564 541 513 541 461.8 541C410.7 541 359.3 541 308 541C256.7 541 205.3 541 154 541C102.7 541 51.3 541 25.7 541L0 541Z" fill="#6484c9"></path><path d="M0 484L25.7 475.8C51.3 467.7 102.7 451.3 154 447.5C205.3 443.7 256.7 452.3 308 453.3C359.3 454.3 410.7 447.7 461.8 450.8C513 454 564 467 615.2 477C666.3 487 717.7 494 769 490.8C820.3 487.7 871.7 474.3 923 472.7C974.3 471 1025.7 481 1077 483.7C1128.3 486.3 1179.7 481.7 1231 472.2C1282.3 462.7 1333.7 448.3 1384.8 451.3C1436 454.3 1487 474.7 1538.2 480.5C1589.3 486.3 1640.7 477.7 1692 476.8C1743.3 476 1794.7 483 1846 481.2C1897.3 479.3 1948.7 468.7 1974.3 463.3L2000 458L2000 541L1974.3 541C1948.7 541 1897.3 541 1846 541C1794.7 541 1743.3 541 1692 541C1640.7 541 1589.3 541 1538.2 541C1487 541 1436 541 1384.8 541C1333.7 541 1282.3 541 1231 541C1179.7 541 1128.3 541 1077 541C1025.7 541 974.3 541 923 541C871.7 541 820.3 541 769 541C717.7 541 666.3 541 615.2 541C564 541 513 541 461.8 541C410.7 541 359.3 541 308 541C256.7 541 205.3 541 154 541C102.7 541 51.3 541 25.7 541L0 541Z" fill="#025fb6"></path></svg>