<svg id="visual" viewBox="0 0 2000 300" width="2000" height="300" xmlns="http://www.w3.org/2000/svg" xmlns:xlink="http://www.w3.org/1999/xlink" version="1.1"><rect x="0" y="0" width="2000" height="300" fill="#ffffff"></rect><path d="M0 73L20.8 73.8C41.7 74.7 83.3 76.3 125 72.2C166.7 68 208.3 58 250 51C291.7 44 333.3 40 375 41.2C416.7 42.3 458.3 48.7 500 54C541.7 59.3 583.3 63.7 625 69.2C666.7 74.7 708.3 81.3 750 77.5C791.7 73.7 833.3 59.3 875 58.5C916.7 57.7 958.3 70.3 1000 76.7C1041.7 83 1083.3 83 1125 75.2C1166.7 67.3 1208.3 51.7 1250 48.3C1291.7 45 1333.3 54 1375 62.5C1416.7 71 1458.3 79 1500 81.3C1541.7 83.7 1583.3 80.3 1625 72.2C1666.7 64 1708.3 51 1750 52.2C1791.7 53.3 1833.3 68.7 1875 75C1916.7 81.3 1958.3 78.7 1979.2 77.3L2000 76L2000 301L1979.2 301C1958.3 301 1916.7 301 1875 301C1833.3 301 1791.7 301 1750 301C1708.3 301 1666.7 301 1625 301C1583.3 301 1541.7 301 1500 301C1458.3 301 1416.7 301 1375 301C1333.3 301 1291.7 301 1250 301C1208.3 301 1166.7 301 1125 301C1083.3 301 1041.7 301 1000 301C958.3 301 916.7 301 875 301C833.3 301 791.7 301 750 301C708.3 301 666.7 301 625 301C583.3 301 541.7 301 500 301C458.3 301 416.7 301 375 301C333.3 301 291.7 301 250 301C208.3 301 166.7 301 125 301C83.3 301 41.7 301 20.8 301L0 301Z" fill="#ffffff"></path><path d="M0 100L20.8 102C41.7 104 83.3 108 125 103.8C166.7 99.7 208.3 87.3 250 81C291.7 74.7 333.3 74.3 375 75.8C416.7 77.3 458.3 80.7 500 84.5C541.7 88.3 583.3 92.7 625 93.7C666.7 94.7 708.3 92.3 750 91.7C791.7 91 833.3 92 875 91.2C916.7 90.3 958.3 87.7 1000 90.8C1041.7 94 1083.3 103 1125 101.8C1166.7 100.7 1208.3 89.3 1250 82.7C1291.7 76 1333.3 74 1375 79.5C1416.7 85 1458.3 98 1500 105.5C1541.7 113 1583.3 115 1625 113.7C1666.7 112.3 1708.3 107.7 1750 109.8C1791.7 112 1833.3 121 1875 122.2C1916.7 123.3 1958.3 116.7 1979.2 113.3L2000 110L2000 301L1979.2 301C1958.3 301 1916.7 301 1875 301C1833.3 301 1791.7 301 1750 301C1708.3 301 1666.7 301 1625 301C1583.3 301 1541.7 301 1500 301C1458.3 301 1416.7 301 1375 301C1333.3 301 1291.7 301 1250 301C1208.3 301 1166.7 301 1125 301C1083.3 301 1041.7 301 1000 301C958.3 301 916.7 301 875 301C833.3 301 791.7 301 750 301C708.3 301 666.7 301 625 301C583.3 301 541.7 301 500 301C458.3 301 416.7 301 375 301C333.3 301 291.7 301 250 301C208.3 301 166.7 301 125 301C83.3 301 41.7 301 20.8 301L0 301Z" fill="#d0d0d2"></path><path d="M0 141L20.8 140.8C41.7 140.7 83.3 140.3 125 142.7C166.7 145 208.3 150 250 149.3C291.7 148.7 333.3 142.3 375 135.5C416.7 128.7 458.3 121.3 500 126.5C541.7 131.7 583.3 149.3 625 150.5C666.7 151.7 708.3 136.3 750 129C791.7 121.7 833.3 122.3 875 124.3C916.7 126.3 958.3 129.7 1000 137.2C1041.7 144.7 1083.3 156.3 1125 154.7C1166.7 153 1208.3 138 1250 135C1291.7 132 1333.3 141 1375 146.5C1416.7 152 1458.3 154 1500 151.7C1541.7 149.3 1583.3 142.7 1625 143.8C1666.7 145 1708.3 154 1750 155.7C1791.7 157.3 1833.3 151.7 1875 148.5C1916.7 145.3 1958.3 144.7 1979.2 144.3L2000 144L2000 301L1979.2 301C1958.3 301 1916.7 301 1875 301C1833.3 301 1791.7 301 1750 301C1708.3 301 1666.7 301 1625 301C1583.3 301 1541.7 301 1500 301C1458.3 301 1416.7 301 1375 301C1333.3 301 1291.7 301 1250 301C1208.3 301 1166.7 301 1125 301C1083.3 301 1041.7 301 1000 301C958.3 301 916.7 301 875 301C833.3 301 791.7 301 750 301C708.3 301 666.7 301 625 301C583.3 301 541.7 301 500 301C458.3 301 416.7 301 375 301C333.3 301 291.7 301 250 301C208.3 301 166.7 301 125 301C83.3 301 41.7 301 20.8 301L0 301Z" fill="#a2a4a8"></path><path d="M0 199L20.8 199.3C41.7 199.7 83.3 200.3 125 195.3C166.7 190.3 208.3 179.7 250 172.7C291.7 165.7 333.3 162.3 375 162.3C416.7 162.3 458.3 165.7 500 169.3C541.7 173 583.3 177 625 179.2C666.7 181.3 708.3 181.7 750 179.5C791.7 177.3 833.3 172.7 875 174.3C916.7 176 958.3 184 1000 186.8C1041.7 189.7 1083.3 187.3 1125 189.2C1166.7 191 1208.3 197 1250 198.7C1291.7 200.3 1333.3 197.7 1375 192.7C1416.7 187.7 1458.3 180.3 1500 179.2C1541.7 178 1583.3 183 1625 185.5C1666.7 188 1708.3 188 1750 189.2C1791.7 190.3 1833.3 192.7 1875 195.2C1916.7 197.7 1958.3 200.3 1979.2 201.7L2000 203L2000 301L1979.2 301C1958.3 301 1916.7 301 1875 301C1833.3 301 1791.7 301 1750 301C1708.3 301 1666.7 301 1625 301C1583.3 301 1541.7 301 1500 301C1458.3 301 1416.7 301 1375 301C1333.3 301 1291.7 301 1250 301C1208.3 301 1166.7 301 1125 301C1083.3 301 1041.7 301 1000 301C958.3 301 916.7 301 875 301C833.3 301 791.7 301 750 301C708.3 301 666.7 301 625 301C583.3 301 541.7 301 500 301C458.3 301 416.7 301 375 301C333.3 301 291.7 301 250 301C208.3 301 166.7 301 125 301C83.3 301 41.7 301 20.8 301L0 301Z" fill="#77797f"></path><path d="M0 234L20.8 228.7C41.7 223.3 83.3 212.7 125 211.8C166.7 211 208.3 220 250 224C291.7 228 333.3 227 375 222C416.7 217 458.3 208 500 209C541.7 210 583.3 221 625 222C666.7 223 708.3 214 750 210.5C791.7 207 833.3 209 875 212.7C916.7 216.3 958.3 221.7 1000 220.8C1041.7 220 1083.3 213 1125 213C1166.7 213 1208.3 220 1250 225.8C1291.7 231.7 1333.3 236.3 1375 231.8C1416.7 227.3 1458.3 213.7 1500 206C1541.7 198.3 1583.3 196.7 1625 198.8C1666.7 201 1708.3 207 1750 212C1791.7 217 1833.3 221 1875 219.7C1916.7 218.3 1958.3 211.7 1979.2 208.3L2000 205L2000 301L1979.2 301C1958.3 301 1916.7 301 1875 301C1833.3 301 1791.7 301 1750 301C1708.3 301 1666.7 301 1625 301C1583.3 301 1541.7 301 1500 301C1458.3 301 1416.7 301 1375 301C1333.3 301 1291.7 301 1250 301C1208.3 301 1166.7 301 1125 301C1083.3 301 1041.7 301 1000 301C958.3 301 916.7 301 875 301C833.3 301 791.7 301 750 301C708.3 301 666.7 301 625 301C583.3 301 541.7 301 500 301C458.3 301 416.7 301 375 301C333.3 301 291.7 301 250 301C208.3 301 166.7 301 125 301C83.3 301 41.7 301 20.8 301L0 301Z" fill="#4e5158"></path><path d="M0 238L20.8 238.8C41.7 239.7 83.3 241.3 125 247.2C166.7 253 208.3 263 250 264.2C291.7 265.3 333.3 257.7 375 251.7C416.7 245.7 458.3 241.3 500 243C541.7 244.7 583.3 252.3 625 258.3C666.7 264.3 708.3 268.7 750 266C791.7 263.3 833.3 253.7 875 248.7C916.7 243.7 958.3 243.3 1000 245C1041.7 246.7 1083.3 250.3 1125 253.5C1166.7 256.7 1208.3 259.3 1250 258.2C1291.7 257 1333.3 252 1375 250.2C1416.7 248.3 1458.3 249.7 1500 250.8C1541.7 252 1583.3 253 1625 252.2C1666.7 251.3 1708.3 248.7 1750 250.8C1791.7 253 1833.3 260 1875 262.8C1916.7 265.7 1958.3 264.3 1979.2 263.7L2000 263L2000 301L1979.2 301C1958.3 301 1916.7 301 1875 301C1833.3 301 1791.7 301 1750 301C1708.3 301 1666.7 301 1625 301C1583.3 301 1541.7 301 1500 301C1458.3 301 1416.7 301 1375 301C1333.3 301 1291.7 301 1250 301C1208.3 301 1166.7 301 1125 301C1083.3 301 1041.7 301 1000 301C958.3 301 916.7 301 875 301C833.3 301 791.7 301 750 301C708.3 301 666.7 301 625 301C583.3 301 541.7 301 500 301C458.3 301 416.7 301 375 301C333.3 301 291.7 301 250 301C208.3 301 166.7 301 125 301C83.3 301 41.7 301 20.8 301L0 301Z" fill="#282c34"></path></svg>