<svg id="visual" viewBox="0 0 2160 200" width="2160" height="200" xmlns="http://www.w3.org/2000/svg" xmlns:xlink="http://www.w3.org/1999/xlink" version="1.1"><path d="M0 0L20 2.2C40 4.3 80 8.7 120 9.2C160 9.7 200 6.3 240 6.3C280 6.3 320 9.7 360 11C400 12.3 440 11.7 480 9.5C520 7.3 560 3.7 600 1.8C640 0 680 0 720 1.5C760 3 800 6 840 9.2C880 12.3 920 15.7 960 15C1000 14.3 1040 9.7 1080 9C1120 8.3 1160 11.7 1200 12.3C1240 13 1280 11 1320 9.7C1360 8.3 1400 7.7 1440 9C1480 10.3 1520 13.7 1560 14.3C1600 15 1640 13 1680 11.7C1720 10.3 1760 9.7 1800 10.7C1840 11.7 1880 14.3 1920 15C1960 15.7 2000 14.3 2040 12C2080 9.7 2120 6.3 2140 4.7L2160 3L2160 0L2140 0C2120 0 2080 0 2040 0C2000 0 1960 0 1920 0C1880 0 1840 0 1800 0C1760 0 1720 0 1680 0C1640 0 1600 0 1560 0C1520 0 1480 0 1440 0C1400 0 1360 0 1320 0C1280 0 1240 0 1200 0C1160 0 1120 0 1080 0C1040 0 1000 0 960 0C920 0 880 0 840 0C800 0 760 0 720 0C680 0 640 0 600 0C560 0 520 0 480 0C440 0 400 0 360 0C320 0 280 0 240 0C200 0 160 0 120 0C80 0 40 0 20 0L0 0Z" fill="#ffffff"></path><path d="M0 9L20 13C40 17 80 25 120 28C160 31 200 29 240 28.7C280 28.3 320 29.7 360 30C400 30.3 440 29.7 480 29.3C520 29 560 29 600 25.3C640 21.7 680 14.3 720 13C760 11.7 800 16.3 840 22.7C880 29 920 37 960 36.3C1000 35.7 1040 26.3 1080 25.3C1120 24.3 1160 31.7 1200 34.7C1240 37.7 1280 36.3 1320 34C1360 31.7 1400 28.3 1440 29C1480 29.7 1520 34.3 1560 32C1600 29.7 1640 20.3 1680 16C1720 11.7 1760 12.3 1800 14C1840 15.7 1880 18.3 1920 21.3C1960 24.3 2000 27.7 2040 29.3C2080 31 2120 31 2140 31L2160 31L2160 1L2140 2.7C2120 4.3 2080 7.7 2040 10C2000 12.3 1960 13.7 1920 13C1880 12.3 1840 9.7 1800 8.7C1760 7.7 1720 8.3 1680 9.7C1640 11 1600 13 1560 12.3C1520 11.7 1480 8.3 1440 7C1400 5.7 1360 6.3 1320 7.7C1280 9 1240 11 1200 10.3C1160 9.7 1120 6.3 1080 7C1040 7.7 1000 12.3 960 13C920 13.7 880 10.3 840 7.5C800 4.7 760 2.3 720 1.2C680 0 640 0 600 1.5C560 3 520 6 480 7.8C440 9.7 400 10.3 360 9C320 7.7 280 4.3 240 4.3C200 4.3 160 7.7 120 7.5C80 7.3 40 3.7 20 1.8L0 0Z" fill="#c9cacd"></path><path d="M0 9L20 13.3C40 17.7 80 26.3 120 37C160 47.7 200 60.3 240 62.3C280 64.3 320 55.7 360 58.3C400 61 440 75 480 73.3C520 71.7 560 54.3 600 47.7C640 41 680 45 720 45C760 45 800 41 840 50C880 59 920 81 960 87.7C1000 94.3 1040 85.7 1080 78C1120 70.3 1160 63.7 1200 63C1240 62.3 1280 67.7 1320 64.7C1360 61.7 1400 50.3 1440 45.3C1480 40.3 1520 41.7 1560 48C1600 54.3 1640 65.7 1680 66.3C1720 67 1760 57 1800 52.3C1840 47.7 1880 48.3 1920 46.7C1960 45 2000 41 2040 51.7C2080 62.3 2120 87.7 2140 100.3L2160 113L2160 29L2140 29C2120 29 2080 29 2040 27.3C2000 25.7 1960 22.3 1920 19.3C1880 16.3 1840 13.7 1800 12C1760 10.3 1720 9.7 1680 14C1640 18.3 1600 27.7 1560 30C1520 32.3 1480 27.7 1440 27C1400 26.3 1360 29.7 1320 32C1280 34.3 1240 35.7 1200 32.7C1160 29.7 1120 22.3 1080 23.3C1040 24.3 1000 33.7 960 34.3C920 35 880 27 840 20.7C800 14.3 760 9.7 720 11C680 12.3 640 19.7 600 23.3C560 27 520 27 480 27.3C440 27.7 400 28.3 360 28C320 27.7 280 26.3 240 26.7C200 27 160 29 120 26C80 23 40 15 20 11L0 7Z" fill="#96989c"></path><path d="M0 29L20 31C40 33 80 37 120 46.7C160 56.3 200 71.7 240 74.7C280 77.7 320 68.3 360 70.3C400 72.3 440 85.7 480 82C520 78.3 560 57.7 600 49.7C640 41.7 680 46.3 720 47.7C760 49 800 47 840 57.7C880 68.3 920 91.7 960 98.7C1000 105.7 1040 96.3 1080 89C1120 81.7 1160 76.3 1200 76.3C1240 76.3 1280 81.7 1320 77.7C1360 73.7 1400 60.3 1440 53C1480 45.7 1520 44.3 1560 50.7C1600 57 1640 71 1680 72C1720 73 1760 61 1800 57.3C1840 53.7 1880 58.3 1920 59C1960 59.7 2000 56.3 2040 65C2080 73.7 2120 94.3 2140 104.7L2160 115L2160 111L2140 98.3C2120 85.7 2080 60.3 2040 49.7C2000 39 1960 43 1920 44.7C1880 46.3 1840 45.7 1800 50.3C1760 55 1720 65 1680 64.3C1640 63.7 1600 52.3 1560 46C1520 39.7 1480 38.3 1440 43.3C1400 48.3 1360 59.7 1320 62.7C1280 65.7 1240 60.3 1200 61C1160 61.7 1120 68.3 1080 76C1040 83.7 1000 92.3 960 85.7C920 79 880 57 840 48C800 39 760 43 720 43C680 43 640 39 600 45.7C560 52.3 520 69.7 480 71.3C440 73 400 59 360 56.3C320 53.7 280 62.3 240 60.3C200 58.3 160 45.7 120 35C80 24.3 40 15.7 20 11.3L0 7Z" fill="#66686f"></path><path d="M0 67L20 65C40 63 80 59 120 63.7C160 68.3 200 81.7 240 86.7C280 91.7 320 88.3 360 89.7C400 91 440 97 480 91.3C520 85.7 560 68.3 600 62C640 55.7 680 60.3 720 64.3C760 68.3 800 71.7 840 84C880 96.3 920 117.7 960 121C1000 124.3 1040 109.7 1080 99.3C1120 89 1160 83 1200 81.7C1240 80.3 1280 83.7 1320 82C1360 80.3 1400 73.7 1440 70.7C1480 67.7 1520 68.3 1560 72C1600 75.7 1640 82.3 1680 86C1720 89.7 1760 90.3 1800 89.3C1840 88.3 1880 85.7 1920 81.3C1960 77 2000 71 2040 77.3C2080 83.7 2120 102.3 2140 111.7L2160 121L2160 113L2140 102.7C2120 92.3 2080 71.7 2040 63C2000 54.3 1960 57.7 1920 57C1880 56.3 1840 51.7 1800 55.3C1760 59 1720 71 1680 70C1640 69 1600 55 1560 48.7C1520 42.3 1480 43.7 1440 51C1400 58.3 1360 71.7 1320 75.7C1280 79.7 1240 74.3 1200 74.3C1160 74.3 1120 79.7 1080 87C1040 94.3 1000 103.7 960 96.7C920 89.7 880 66.3 840 55.7C800 45 760 47 720 45.7C680 44.3 640 39.7 600 47.7C560 55.7 520 76.3 480 80C440 83.7 400 70.3 360 68.3C320 66.3 280 75.7 240 72.7C200 69.7 160 54.3 120 44.7C80 35 40 31 20 29L0 27Z" fill="#393c44"></path><path d="M0 151L20 145.3C40 139.7 80 128.3 120 122.7C160 117 200 117 240 120.3C280 123.7 320 130.3 360 130C400 129.7 440 122.3 480 120C520 117.7 560 120.3 600 122.3C640 124.3 680 125.7 720 125C760 124.3 800 121.7 840 127C880 132.3 920 145.7 960 143.3C1000 141 1040 123 1080 116C1120 109 1160 113 1200 114.3C1240 115.7 1280 114.3 1320 117C1360 119.7 1400 126.3 1440 126.3C1480 126.3 1520 119.7 1560 117C1600 114.3 1640 115.7 1680 118.7C1720 121.7 1760 126.3 1800 125.7C1840 125 1880 119 1920 118C1960 117 2000 121 2040 124.3C2080 127.7 2120 130.3 2140 131.7L2160 133L2160 119L2140 109.7C2120 100.3 2080 81.7 2040 75.3C2000 69 1960 75 1920 79.3C1880 83.7 1840 86.3 1800 87.3C1760 88.3 1720 87.7 1680 84C1640 80.3 1600 73.7 1560 70C1520 66.3 1480 65.7 1440 68.7C1400 71.7 1360 78.3 1320 80C1280 81.7 1240 78.3 1200 79.7C1160 81 1120 87 1080 97.3C1040 107.7 1000 122.3 960 119C920 115.7 880 94.3 840 82C800 69.7 760 66.3 720 62.3C680 58.3 640 53.7 600 60C560 66.3 520 83.7 480 89.3C440 95 400 89 360 87.7C320 86.3 280 89.7 240 84.7C200 79.7 160 66.3 120 61.7C80 57 40 61 20 63L0 65Z" fill="#282c34"></path><path d="M0 153L20 148.3C40 143.7 80 134.3 120 130C160 125.7 200 126.3 240 129.7C280 133 320 139 360 137.7C400 136.3 440 127.7 480 124.7C520 121.7 560 124.3 600 126.3C640 128.3 680 129.7 720 130.7C760 131.7 800 132.3 840 137.7C880 143 920 153 960 151C1000 149 1040 135 1080 128.7C1120 122.3 1160 123.7 1200 124C1240 124.3 1280 123.7 1320 125C1360 126.3 1400 129.7 1440 129.7C1480 129.7 1520 126.3 1560 125C1600 123.7 1640 124.3 1680 126C1720 127.7 1760 130.3 1800 128.3C1840 126.3 1880 119.7 1920 119.7C1960 119.7 2000 126.3 2040 132.3C2080 138.3 2120 143.7 2140 146.3L2160 149L2160 131L2140 129.7C2120 128.3 2080 125.7 2040 122.3C2000 119 1960 115 1920 116C1880 117 1840 123 1800 123.7C1760 124.3 1720 119.7 1680 116.7C1640 113.7 1600 112.3 1560 115C1520 117.7 1480 124.3 1440 124.3C1400 124.3 1360 117.7 1320 115C1280 112.3 1240 113.7 1200 112.3C1160 111 1120 107 1080 114C1040 121 1000 139 960 141.3C920 143.7 880 130.3 840 125C800 119.7 760 122.3 720 123C680 123.7 640 122.3 600 120.3C560 118.3 520 115.7 480 118C440 120.3 400 127.7 360 128C320 128.3 280 121.7 240 118.3C200 115 160 115 120 120.7C80 126.3 40 137.7 20 143.3L0 149Z" fill="#282c34"></path><path d="M0 165L20 159C40 153 80 141 120 136.3C160 131.7 200 134.3 240 139C280 143.7 320 150.3 360 149.3C400 148.3 440 139.7 480 135C520 130.3 560 129.7 600 129.7C640 129.7 680 130.3 720 133.7C760 137 800 143 840 150C880 157 920 165 960 163C1000 161 1040 149 1080 142C1120 135 1160 133 1200 133C1240 133 1280 135 1320 136.3C1360 137.7 1400 138.3 1440 137.3C1480 136.3 1520 133.7 1560 134C1600 134.3 1640 137.7 1680 140C1720 142.3 1760 143.7 1800 141.3C1840 139 1880 133 1920 133.7C1960 134.3 2000 141.7 2040 145.3C2080 149 2120 149 2140 149L2160 149L2160 147L2140 144.3C2120 141.7 2080 136.3 2040 130.3C2000 124.3 1960 117.7 1920 117.7C1880 117.7 1840 124.3 1800 126.3C1760 128.3 1720 125.7 1680 124C1640 122.3 1600 121.7 1560 123C1520 124.3 1480 127.7 1440 127.7C1400 127.7 1360 124.3 1320 123C1280 121.7 1240 122.3 1200 122C1160 121.7 1120 120.3 1080 126.7C1040 133 1000 147 960 149C920 151 880 141 840 135.7C800 130.3 760 129.7 720 128.7C680 127.7 640 126.3 600 124.3C560 122.3 520 119.7 480 122.7C440 125.7 400 134.3 360 135.7C320 137 280 131 240 127.7C200 124.3 160 123.7 120 128C80 132.3 40 141.7 20 146.3L0 151Z" fill="#393c44"></path><path d="M0 177L20 170.3C40 163.7 80 150.3 120 147.3C160 144.3 200 151.7 240 157.7C280 163.7 320 168.3 360 166C400 163.7 440 154.3 480 151.7C520 149 560 153 600 151.7C640 150.3 680 143.7 720 144C760 144.3 800 151.7 840 158.3C880 165 920 171 960 170C1000 169 1040 161 1080 157.3C1120 153.7 1160 154.3 1200 154.3C1240 154.3 1280 153.7 1320 154.3C1360 155 1400 157 1440 153.7C1480 150.3 1520 141.7 1560 141C1600 140.3 1640 147.7 1680 152.7C1720 157.7 1760 160.3 1800 159.7C1840 159 1880 155 1920 153.7C1960 152.3 2000 153.7 2040 157.7C2080 161.7 2120 168.3 2140 171.7L2160 175L2160 147L2140 147C2120 147 2080 147 2040 143.3C2000 139.7 1960 132.3 1920 131.7C1880 131 1840 137 1800 139.3C1760 141.7 1720 140.3 1680 138C1640 135.7 1600 132.3 1560 132C1520 131.7 1480 134.3 1440 135.3C1400 136.3 1360 135.7 1320 134.3C1280 133 1240 131 1200 131C1160 131 1120 133 1080 140C1040 147 1000 159 960 161C920 163 880 155 840 148C800 141 760 135 720 131.7C680 128.3 640 127.7 600 127.7C560 127.7 520 128.3 480 133C440 137.7 400 146.3 360 147.3C320 148.3 280 141.7 240 137C200 132.3 160 129.7 120 134.3C80 139 40 151 20 157L0 163Z" fill="#66686f"></path><path d="M0 195L20 187.3C40 179.7 80 164.3 120 161.7C160 159 200 169 240 174C280 179 320 179 360 175C400 171 440 163 480 161.7C520 160.3 560 165.7 600 166.7C640 167.7 680 164.3 720 166C760 167.7 800 174.3 840 179.3C880 184.3 920 187.7 960 186.3C1000 185 1040 179 1080 175C1120 171 1160 169 1200 165.7C1240 162.3 1280 157.7 1320 159.7C1360 161.7 1400 170.3 1440 170.7C1480 171 1520 163 1560 162C1600 161 1640 167 1680 171.7C1720 176.3 1760 179.7 1800 177.3C1840 175 1880 167 1920 162.7C1960 158.3 2000 157.7 2040 162.7C2080 167.7 2120 178.3 2140 183.7L2160 189L2160 173L2140 169.7C2120 166.3 2080 159.7 2040 155.7C2000 151.7 1960 150.3 1920 151.7C1880 153 1840 157 1800 157.7C1760 158.3 1720 155.7 1680 150.7C1640 145.7 1600 138.3 1560 139C1520 139.7 1480 148.3 1440 151.7C1400 155 1360 153 1320 152.3C1280 151.7 1240 152.3 1200 152.3C1160 152.3 1120 151.7 1080 155.3C1040 159 1000 167 960 168C920 169 880 163 840 156.3C800 149.7 760 142.3 720 142C680 141.7 640 148.3 600 149.7C560 151 520 147 480 149.7C440 152.3 400 161.7 360 164C320 166.3 280 161.7 240 155.7C200 149.7 160 142.3 120 145.3C80 148.3 40 161.7 20 168.3L0 175Z" fill="#96989c"></path><path d="M0 199L20 192.3C40 185.7 80 172.3 120 169.3C160 166.3 200 173.7 240 177.7C280 181.7 320 182.3 360 179.7C400 177 440 171 480 171C520 171 560 177 600 177.3C640 177.7 680 172.3 720 173.7C760 175 800 183 840 188C880 193 920 195 960 194.7C1000 194.3 1040 191.7 1080 189.3C1120 187 1160 185 1200 181.3C1240 177.7 1280 172.3 1320 174C1360 175.7 1400 184.3 1440 184C1480 183.7 1520 174.3 1560 171.3C1600 168.3 1640 171.7 1680 174.7C1720 177.7 1760 180.3 1800 179.3C1840 178.3 1880 173.7 1920 170.7C1960 167.7 2000 166.3 2040 171C2080 175.7 2120 186.3 2140 191.7L2160 197L2160 187L2140 181.7C2120 176.3 2080 165.7 2040 160.7C2000 155.7 1960 156.3 1920 160.7C1880 165 1840 173 1800 175.3C1760 177.7 1720 174.3 1680 169.7C1640 165 1600 159 1560 160C1520 161 1480 169 1440 168.7C1400 168.3 1360 159.7 1320 157.7C1280 155.7 1240 160.3 1200 163.7C1160 167 1120 169 1080 173C1040 177 1000 183 960 184.3C920 185.7 880 182.3 840 177.3C800 172.3 760 165.7 720 164C680 162.3 640 165.7 600 164.7C560 163.7 520 158.3 480 159.7C440 161 400 169 360 173C320 177 280 177 240 172C200 167 160 157 120 159.7C80 162.3 40 177.7 20 185.3L0 193Z" fill="#c9cacd"></path><path d="M0 201L20 201C40 201 80 201 120 201C160 201 200 201 240 201C280 201 320 201 360 201C400 201 440 201 480 201C520 201 560 201 600 201C640 201 680 201 720 201C760 201 800 201 840 201C880 201 920 201 960 201C1000 201 1040 201 1080 201C1120 201 1160 201 1200 201C1240 201 1280 201 1320 201C1360 201 1400 201 1440 201C1480 201 1520 201 1560 201C1600 201 1640 201 1680 201C1720 201 1760 201 1800 201C1840 201 1880 201 1920 201C1960 201 2000 201 2040 201C2080 201 2120 201 2140 201L2160 201L2160 195L2140 189.7C2120 184.3 2080 173.7 2040 169C2000 164.3 1960 165.7 1920 168.7C1880 171.7 1840 176.3 1800 177.3C1760 178.3 1720 175.7 1680 172.7C1640 169.7 1600 166.3 1560 169.3C1520 172.3 1480 181.7 1440 182C1400 182.3 1360 173.7 1320 172C1280 170.3 1240 175.7 1200 179.3C1160 183 1120 185 1080 187.3C1040 189.7 1000 192.3 960 192.7C920 193 880 191 840 186C800 181 760 173 720 171.7C680 170.3 640 175.7 600 175.3C560 175 520 169 480 169C440 169 400 175 360 177.7C320 180.3 280 179.7 240 175.7C200 171.7 160 164.3 120 167.3C80 170.3 40 183.7 20 190.3L0 197Z" fill="#ffffff"></path></svg>